# Blender 4.1.1
# www.blender.org
mtllib claw_mesh.mtl
o ClawMesh01
v -0.565674 -0.131902 0.831470
v -0.565674 0.131902 0.831470
v -0.717211 -0.131902 0.707107
v -0.717211 0.131902 0.707107
v -0.843786 -0.131902 0.555570
v -0.843786 0.131902 0.555570
v -0.952969 -0.131902 0.382683
v -0.952969 0.131902 0.382683
v -1.002854 -0.131902 0.195090
v -1.002854 0.131902 0.195090
v -1.032552 -0.131902 0.000000
v -1.032552 0.131902 -0.000000
v -1.002854 -0.131902 -0.195090
v -1.002854 0.131902 -0.195090
v -0.952969 -0.131902 -0.382683
v -0.952969 0.131902 -0.382683
v -0.843786 -0.131902 -0.555570
v -0.843786 0.131902 -0.555570
v -0.717211 -0.131902 -0.707107
v -0.717211 0.131902 -0.707107
v -0.568106 -0.123708 -0.848230
v -0.568106 0.123708 -0.848230
v -0.604823 0.000000 1.101257
v -0.805529 0.000000 0.936542
v -0.970245 0.000000 0.735837
v -1.110994 0.000000 0.506853
v -1.224675 0.000000 0.258391
v -1.272042 0.000000 0.000000
v -1.224675 -0.000000 -0.258391
v -1.110994 -0.000000 -0.506853
v -0.970245 -0.000000 -0.735837
v -0.805529 -0.000000 -0.936542
v -0.604823 -0.000000 -1.101257
vn -0.6344 -0.0000 0.7730
vn -0.3121 0.8706 0.3803
vn -0.3694 0.8595 0.3533
vn -0.6910 -0.0000 0.7229
vn -0.4410 0.8428 0.3087
vn -0.8049 -0.0000 0.5934
vn -0.4838 0.8439 0.2319
vn -0.8921 -0.0000 0.4518
vn -0.4919 0.8605 0.1326
vn -0.9649 -0.0000 0.2624
vn -0.4878 0.8729 -0.0000
vn -1.0000 -0.0000 -0.0000
vn -0.4919 0.8605 -0.1326
vn -0.9649 -0.0000 -0.2624
vn -0.4838 0.8439 -0.2319
vn -0.8921 -0.0000 -0.4518
vn -0.4410 0.8428 -0.3087
vn -0.8049 -0.0000 -0.5934
vn -0.3708 0.8592 -0.3526
vn -0.6910 -0.0000 -0.7229
vn -0.3121 0.8706 -0.3803
vn -0.6344 -0.0000 -0.7730
vn -0.3708 -0.8592 -0.3526
vn -0.3121 -0.8706 -0.3803
vn -0.4410 -0.8428 -0.3087
vn -0.4838 -0.8439 -0.2319
vn -0.4919 -0.8605 -0.1326
vn -0.4878 -0.8729 -0.0000
vn -0.4919 -0.8605 0.1326
vn -0.4838 -0.8439 0.2319
vn -0.4410 -0.8428 0.3087
vn -0.3694 -0.8595 0.3533
vn -0.3121 -0.8706 0.3803
vt 0.500000 0.000000
vt 1.000000 0.000000
vt 1.000000 0.103516
vt 0.500000 0.103516
vt 1.000000 0.203125
vt 0.500000 0.203125
vt 1.000000 0.302734
vt 0.500000 0.302734
vt 1.000000 0.402344
vt 0.500000 0.402344
vt 1.000000 0.501953
vt 0.500000 0.501953
vt 1.000000 0.601562
vt 0.500000 0.601562
vt 1.000000 0.701172
vt 0.500000 0.701172
vt 1.000000 0.800781
vt 0.500000 0.800781
vt 1.000000 0.900391
vt 0.500000 0.900391
vt 1.000000 1.000000
vt 0.500000 1.000000
vt 0.000000 0.900391
vt 0.000000 1.000000
vt 0.000000 0.800781
vt 0.000000 0.701172
vt 0.000000 0.601562
vt 0.000000 0.501953
vt 0.000000 0.402344
vt 0.000000 0.302734
vt 0.000000 0.203125
vt 0.000000 0.103516
vt 0.000000 0.000000
s 1
usemtl none
f 23/1/1 2/2/2 4/3/3 24/4/4
f 24/4/4 4/3/3 6/5/5 25/6/6
f 25/6/6 6/5/5 8/7/7 26/8/8
f 26/8/8 8/7/7 10/9/9 27/10/10
f 27/10/10 10/9/9 12/11/11 28/12/12
f 28/12/12 12/11/11 14/13/13 29/14/14
f 29/14/14 14/13/13 16/15/15 30/16/16
f 30/16/16 16/15/15 18/17/17 31/18/18
f 31/18/18 18/17/17 20/19/19 32/20/20
f 32/20/20 20/19/19 22/21/21 33/22/22
f 19/23/23 32/20/20 33/22/22 21/24/24
f 17/25/25 31/18/18 32/20/20 19/23/23
f 15/26/26 30/16/16 31/18/18 17/25/25
f 13/27/27 29/14/14 30/16/16 15/26/26
f 11/28/28 28/12/12 29/14/14 13/27/27
f 9/29/29 27/10/10 28/12/12 11/28/28
f 7/30/30 26/8/8 27/10/10 9/29/29
f 5/31/31 25/6/6 26/8/8 7/30/30
f 3/32/32 24/4/4 25/6/6 5/31/31
f 1/33/33 23/1/1 24/4/4 3/32/32
